<svg id="图层_1" data-name="图层 1" xmlns="http://www.w3.org/2000/svg" xmlns:xlink="http://www.w3.org/1999/xlink" viewBox="0 0 145.07 222.12"><defs><style>.cls-1{fill:url(#未命名的渐变_4);}.cls-2{fill:url(#未命名的渐变_2);}.cls-3{fill:url(#未命名的渐变_3);}</style><linearGradient id="未命名的渐变_4" x1="71.24" y1="-1387.21" x2="162.28" y2="-1233.78" gradientTransform="matrix(1, 0, 0, -1, 0, -1163.65)" gradientUnits="userSpaceOnUse"><stop offset="0" stop-color="#0566b4"/><stop offset="1" stop-color="#2687cc"/></linearGradient><linearGradient id="未命名的渐变_2" x1="198.89" y1="-1254.61" x2="180.63" y2="-1192.22" gradientTransform="matrix(1, 0, 0, -1, 0, -1163.65)" gradientUnits="userSpaceOnUse"><stop offset="0" stop-color="#0566b4"/><stop offset="0.98" stop-color="#2687cc"/></linearGradient><linearGradient id="未命名的渐变_3" x1="-1550.21" y1="288.02" x2="-1495.52" y2="382.73" gradientTransform="matrix(-1, 0, 0, 1, -1385.18, -146)" gradientUnits="userSpaceOnUse"><stop offset="0" stop-color="#2687cc"/><stop offset="1" stop-color="#0566b4"/></linearGradient></defs><g id="图层_2" data-name="图层 2"><g id="图层_18" data-name="图层 18"><path class="cls-1" d="M200.54,220.21V155.66a44.21,44.21,0,0,0-1.23-10.45h0c-.21-.61-.21-1-.41-1.64A45,45,0,0,0,166.32,112a46,46,0,0,0-10.66-1.23h-21.1A44.92,44.92,0,0,1,89.68,66.32V16.94A120.87,120.87,0,0,0,55.46,35.59V220.21a117,117,0,0,0,32.79,18.23l1.43.41v-66a27.68,27.68,0,0,1,27.66-27.66h21.11a27.67,27.67,0,0,1,27.66,27.66v66.19A115.16,115.16,0,0,0,200.54,220.21Z" transform="translate(-55.46 -16.94)"/><path class="cls-2" d="M200.54,128V38.25a13.26,13.26,0,0,0-.21-2.87A17.14,17.14,0,0,0,183.53,21a22.21,22.21,0,0,0-5.12.82,17,17,0,0,0-11.68,12.91,17.22,17.22,0,0,0,3.48,14.34l.82,1h0a120,120,0,0,1,8,10,116.31,116.31,0,0,1,20.29,50.61A92.67,92.67,0,0,1,200.54,126Z" transform="translate(-55.46 -16.94)"/><path class="cls-3" d="M102.8,218.57a6.47,6.47,0,0,0,6.55,6.56h37.3a6.56,6.56,0,0,0,6.55-6.36v-.41a6.56,6.56,0,0,0-6.55-6.35H132.1V192.34a6.48,6.48,0,0,1,6.56-6.56h0a6.57,6.57,0,1,0,.81-13.11H117.34a6.48,6.48,0,0,0-6.14,7,6.59,6.59,0,0,0,6.14,6.14,6.48,6.48,0,0,1,6.56,6.56h0V212H109.35A6.61,6.61,0,0,0,102.8,218.57Z" transform="translate(-55.46 -16.94)"/></g></g></svg>